<svg width="20" height="20" viewBox="0 0 20 20" fill="none" xmlns="http://www.w3.org/2000/svg">
<path d="M4.16669 18.2251C3.55002 18.2251 2.94169 17.9917 2.47502 17.5251C2.02502 17.0751 1.77502 16.4751 1.77502 15.8334C1.77502 15.1917 2.02502 14.5917 2.47502 14.1417L13.3084 3.3084C14.2417 2.37507 15.7584 2.37507 16.6917 3.3084C17.1417 3.7584 17.3917 4.3584 17.3917 5.00007C17.3917 5.64173 17.1417 6.24173 16.6917 6.69173L5.85836 17.5251C5.39169 17.9917 4.78336 18.2251 4.16669 18.2251ZM15 3.8584C14.7084 3.8584 14.4167 3.96673 14.1917 4.19173L3.35836 15.0251C3.14169 15.2417 3.02502 15.5251 3.02502 15.8334C3.02502 16.1417 3.14169 16.4251 3.35836 16.6417C3.80002 17.0834 4.53336 17.0834 4.97502 16.6417L15.8084 5.8084C16.025 5.59173 16.1417 5.3084 16.1417 5.00007C16.1417 4.69173 16.025 4.4084 15.8084 4.19173C15.5834 3.96673 15.2917 3.8584 15 3.8584Z" fill="#1B5E37"/>
<path d="M15.0083 8.11706C14.85 8.11706 14.6916 8.05872 14.5666 7.93372L12.0666 5.43372C11.825 5.19206 11.825 4.79206 12.0666 4.55039C12.3083 4.30872 12.7083 4.30872 12.95 4.55039L15.45 7.05039C15.6916 7.29206 15.6916 7.69206 15.45 7.93372C15.325 8.05872 15.1666 8.11706 15.0083 8.11706Z" fill="#1B5E37"/>
<path d="M8.33338 4.58354C8.29171 4.58354 8.25838 4.57521 8.21671 4.56687L7.08338 4.23354L5.95004 4.56687C5.80004 4.60854 5.64171 4.56687 5.54171 4.45854C5.43338 4.35021 5.39171 4.20021 5.43338 4.05021L5.76671 2.91687L5.43338 1.78354C5.39171 1.63354 5.43338 1.47521 5.54171 1.37521C5.65004 1.26687 5.80838 1.22521 5.95004 1.26687L7.08338 1.60021L8.21671 1.26687C8.36671 1.22521 8.51671 1.26687 8.62504 1.37521C8.73338 1.48354 8.77504 1.64187 8.73338 1.78354L8.40004 2.91687L8.73338 4.05021C8.77504 4.20021 8.73338 4.35854 8.62504 4.45854C8.55004 4.54187 8.44171 4.58354 8.33338 4.58354ZM7.08338 3.38354C7.12504 3.38354 7.15838 3.39187 7.20004 3.40021L7.71671 3.55021L7.56671 3.03354C7.54171 2.95854 7.54171 2.87521 7.56671 2.80021L7.71671 2.28354L7.20004 2.43354C7.12504 2.45854 7.04171 2.45854 6.96671 2.43354L6.45004 2.28354L6.60004 2.80021C6.62504 2.87521 6.62504 2.95854 6.60004 3.03354L6.45004 3.55021L6.96671 3.40021C7.00838 3.39187 7.04171 3.38354 7.08338 3.38354Z" fill="#1B5E37"/>
<path d="M5 9.58354C4.95834 9.58354 4.925 9.5752 4.88334 9.56687L3.75 9.23354L2.61667 9.56687C2.46667 9.60854 2.31667 9.56687 2.20834 9.45854C2.1 9.35021 2.05834 9.19187 2.1 9.0502L2.43334 7.91687L2.1 6.78354C2.05834 6.63354 2.1 6.47521 2.20834 6.37521C2.31667 6.27521 2.475 6.22521 2.61667 6.26687L3.75 6.60021L4.88334 6.26687C5.025 6.22521 5.18334 6.26687 5.29167 6.37521C5.4 6.48354 5.44167 6.64187 5.4 6.78354L5.06667 7.91687L5.4 9.0502C5.44167 9.2002 5.4 9.35854 5.29167 9.45854C5.21667 9.54187 5.10834 9.58354 5 9.58354ZM3.75 8.38354C3.79167 8.38354 3.825 8.39187 3.86667 8.40021L4.38334 8.55021L4.23334 8.03354C4.20834 7.95854 4.20834 7.87521 4.23334 7.8002L4.38334 7.28354L3.86667 7.43354C3.79167 7.45854 3.70834 7.45854 3.63334 7.43354L3.11667 7.28354L3.26667 7.8002C3.29167 7.87521 3.29167 7.95854 3.26667 8.03354L3.11667 8.55021L3.63334 8.40021C3.675 8.39187 3.70834 8.38354 3.75 8.38354Z" fill="#1B5E37"/>
<path d="M17.5 13.7496C17.4583 13.7496 17.425 13.7412 17.3833 13.7329L16.25 13.3996L15.1167 13.7329C14.9667 13.7746 14.8167 13.7329 14.7083 13.6246C14.6 13.5162 14.5583 13.3579 14.6 13.2162L14.9333 12.0829L14.6 10.9496C14.5583 10.7996 14.6 10.6412 14.7083 10.5412C14.8167 10.4412 14.975 10.3912 15.1167 10.4329L16.25 10.7662L17.3833 10.4329C17.525 10.3912 17.6833 10.4329 17.7917 10.5412C17.9 10.6496 17.9417 10.8079 17.9 10.9496L17.5667 12.0829L17.9 13.2162C17.9417 13.3662 17.9 13.5246 17.7917 13.6246C17.7167 13.7079 17.6083 13.7496 17.5 13.7496ZM16.25 12.5496C16.2917 12.5496 16.325 12.5579 16.3667 12.5662L16.8833 12.7162L16.7333 12.1996C16.7083 12.1246 16.7083 12.0412 16.7333 11.9662L16.8833 11.4496L16.3667 11.5996C16.2917 11.6246 16.2083 11.6246 16.1333 11.5996L15.6167 11.4496L15.7667 11.9662C15.7917 12.0412 15.7917 12.1246 15.7667 12.1996L15.6167 12.7162L16.1333 12.5662C16.175 12.5579 16.2083 12.5496 16.25 12.5496Z" fill="#1B5E37"/>
</svg>
