<svg width="20" height="20" viewBox="0 0 20 20" fill="none" xmlns="http://www.w3.org/2000/svg">
<path d="M14.7834 18.959H5.21671C3.14171 18.959 1.45837 17.2756 1.45837 15.2006V9.59233C1.45837 7.51733 3.14171 5.83398 5.21671 5.83398H14.7834C16.8584 5.83398 18.5417 7.51733 18.5417 9.59233V10.7923C18.5417 11.134 18.2584 11.4173 17.9167 11.4173H16.2334C15.9417 11.4173 15.675 11.5257 15.4834 11.7257L15.475 11.734C15.2417 11.959 15.1334 12.2673 15.1584 12.584C15.2084 13.134 15.7334 13.5756 16.3334 13.5756H17.9167C18.2584 13.5756 18.5417 13.859 18.5417 14.2006V15.1923C18.5417 17.2756 16.8584 18.959 14.7834 18.959ZM5.21671 7.08398C3.83337 7.08398 2.70837 8.20899 2.70837 9.59233V15.2006C2.70837 16.584 3.83337 17.709 5.21671 17.709H14.7834C16.1667 17.709 17.2917 16.584 17.2917 15.2006V14.834H16.3334C15.075 14.834 14.0084 13.9006 13.9084 12.7006C13.8417 12.0173 14.0917 11.3423 14.5917 10.8507C15.025 10.409 15.6084 10.1673 16.2334 10.1673H17.2917V9.59233C17.2917 8.20899 16.1667 7.08398 14.7834 7.08398H5.21671Z" fill="#1B5E37"/>
<path d="M2.08337 10.966C1.74171 10.966 1.45837 10.6827 1.45837 10.341V6.53273C1.45837 5.29107 2.24171 4.16602 3.40004 3.72435L10.0167 1.22435C10.7 0.96602 11.4584 1.05773 12.05 1.47439C12.65 1.89106 13 2.56605 13 3.29105V6.45771C13 6.79938 12.7167 7.08271 12.375 7.08271C12.0334 7.08271 11.75 6.79938 11.75 6.45771V3.29105C11.75 2.97439 11.6 2.68271 11.3334 2.49938C11.0667 2.31604 10.75 2.27437 10.45 2.39104L3.83337 4.89104C3.15837 5.14937 2.70004 5.80773 2.70004 6.53273V10.341C2.70837 10.691 2.42504 10.966 2.08337 10.966Z" fill="#1B5E37"/>
<path d="M16.3333 14.8327C15.075 14.8327 14.0083 13.8993 13.9083 12.6993C13.8416 12.0077 14.0916 11.3327 14.5916 10.841C15.0166 10.4077 15.6 10.166 16.225 10.166H17.9583C18.7833 10.191 19.4166 10.841 19.4166 11.641V13.3577C19.4166 14.1577 18.7833 14.8077 17.9833 14.8327H16.3333ZM17.9416 11.416H16.2333C15.9416 11.416 15.675 11.5243 15.4833 11.7243C15.2416 11.9577 15.125 12.2743 15.1583 12.591C15.2083 13.141 15.7333 13.5827 16.3333 13.5827H17.9666C18.075 13.5827 18.175 13.4827 18.175 13.3577V11.641C18.175 11.516 18.075 11.4243 17.9416 11.416Z" fill="#1B5E37"/>
<path d="M11.6667 10.625H5.83337C5.49171 10.625 5.20837 10.3417 5.20837 10C5.20837 9.65833 5.49171 9.375 5.83337 9.375H11.6667C12.0084 9.375 12.2917 9.65833 12.2917 10C12.2917 10.3417 12.0084 10.625 11.6667 10.625Z" fill="#1B5E37"/>
</svg>
